<?xml version="1.0" encoding="UTF-8"?>
<svg width="75px" height="11px" viewBox="0 0 75 11" version="1.1" xmlns="http://www.w3.org/2000/svg" xmlns:xlink="http://www.w3.org/1999/xlink">
    <!-- Generator: Sketch 64 (93537) - https://sketch.com -->
    <title>Group</title>
    <desc>Created with Sketch.</desc>
    <g id="Page-1" stroke="none" stroke-width="1" fill="none" fill-rule="evenodd">
        <g id="Storefront-Wireframe-Copy" transform="translate(-665.000000, -2145.000000)" fill="#FFB400">
            <g id="Group" transform="translate(665.000000, 2145.000000)">
                <polygon id="Star" points="6 9 2.47328849 10.854102 3.14683045 6.92705098 0.293660902 4.14589803 4.23664424 3.57294902 6 0 7.76335576 3.57294902 11.7063391 4.14589803 8.85316955 6.92705098 9.52671151 10.854102"></polygon>
                <polygon id="Star-Copy" points="21.75 9 18.2232885 10.854102 18.8968305 6.92705098 16.0436609 4.14589803 19.9866442 3.57294902 21.75 0 23.5133558 3.57294902 27.4563391 4.14589803 24.6031695 6.92705098 25.2767115 10.854102"></polygon>
                <polygon id="Star-Copy-2" points="37.5 9 33.9732885 10.854102 34.6468305 6.92705098 31.7936609 4.14589803 35.7366442 3.57294902 37.5 0 39.2633558 3.57294902 43.2063391 4.14589803 40.3531695 6.92705098 41.0267115 10.854102"></polygon>
                <polygon id="Star-Copy-3" points="53.25 9 49.7232885 10.854102 50.3968305 6.92705098 47.5436609 4.14589803 51.4866442 3.57294902 53.25 0 55.0133558 3.57294902 58.9563391 4.14589803 56.1031695 6.92705098 56.7767115 10.854102"></polygon>
                <polygon id="Star-Copy-4" points="69 9 65.4732885 10.854102 66.1468305 6.92705098 63.2936609 4.14589803 67.2366442 3.57294902 69 0 70.7633558 3.57294902 74.7063391 4.14589803 71.8531695 6.92705098 72.5267115 10.854102"></polygon>
            </g>
        </g>
    </g>
</svg>